<svg width="155" height="40" viewBox="0 0 155 40" fill="none" xmlns="http://www.w3.org/2000/svg">
<path d="M33.576 12.408L32.136 12.888L25.752 3.432H19.896V35.352L24.936 37.08L23.976 39H9.384V37.512L13.896 33.96V3.432H8.184L1.8 12.888L0.36 12.408V0.407999L2.952 1.272H30.984L33.576 0.407999V12.408ZM68.6175 39H39.8175V37.512L44.3295 33.96V4.872L39.3375 3.192L40.2975 1.272H68.1375L70.7295 0.407999V11.448L69.2895 11.928L63.5775 3.432H50.3295V18.648H57.8655L61.3695 12.504H62.8575V27.096L60.9375 28.056L57.9135 20.808H50.3295V36.84H63.3855L69.7695 27.384L71.2095 27.864V39.864L68.6175 39ZM115.487 39H100.895V37.512L104.687 34.584L95.5673 23.064L85.5833 34.344L92.5433 37.08L91.5833 39H76.9913V37.512L82.3193 34.248L94.0793 21.144L82.3193 6.12L77.4713 3.192L78.4313 1.272H93.0233V2.76L89.2313 5.688L98.3033 17.112L107.471 5.976L100.463 3.192L101.423 1.272H116.015V2.76L111.071 5.784L99.8873 19.08L111.647 34.152L116.447 37.08L115.487 39ZM154.514 12.408L153.074 12.888L146.69 3.432H140.834V35.352L145.874 37.08L144.914 39H130.322V37.512L134.834 33.96V3.432H129.122L122.738 12.888L121.298 12.408V0.407999L123.89 1.272H151.922L154.514 0.407999V12.408Z" fill="black"/>
</svg>
